<svg width="1440" height="309" viewBox="0 0 1440 309" fill="none" xmlns="http://www.w3.org/2000/svg">
<path d="M647 181.344C611.418 92.0184 542.804 145.147 510.306 181.344C469.683 226.59 447.741 295.494 322.314 296.973C196.887 298.451 121.434 239.7 93.4028 135.802C65.2337 31.3945 160.119 -18.2874 185.916 31.3945C228.769 113.924 76.7979 225.391 -4.50321e-06 215.927" stroke="#78D700" stroke-width="24"/>
<path d="M1440 121.344C1382 121.344 1335.8 145.147 1303.31 181.344C1262.68 226.59 1240.74 295.494 1115.31 296.973C989.887 298.451 914.434 239.7 886.403 135.802C858.234 31.3945 953.119 -18.2874 978.916 31.3945C1021.77 113.924 869.798 225.391 793 215.927" stroke="#78D700" stroke-width="24"/>
</svg>
